<svg xmlns="http://www.w3.org/2000/svg" viewBox="0 0 448 512" width="50" height="50" fill="currentColor">
  <path d="M224,202.66A53.34,53.34,0,1,0,277.34,256,53.38,53.38,0,0,0,224,202.66Zm124.71-41a54,54,0,0,0-30.5-30.5C295.25,121.66,224,120,224,120s-71.25,1.66-94.21,11.13a54,54,0,0,0-30.5,30.5C88.66,145.75,88,176,88,176s-.66,30.25,11.13,53.21a54,54,0,0,0,30.5,30.5C152.75,274.34,224,276,224,276s71.25-1.66,94.21-11.13a54,54,0,0,0,30.5-30.5C359.34,206.25,360,176,360,176S359.34,145.75,348.71,161.66ZM224,265.34A41.34,41.34,0,1,1,265.34,224,41.37,41.37,0,0,1,224,265.34ZM308.71,169.29a12,12,0,1,1,12-12A12,12,0,0,1,308.71,169.29ZM224,64C132.29,64,64,132.29,64,224S132.29,384,224,384,384,315.71,384,224,315.71,64,224,64Z"/>
</svg>