<svg xmlns="http://www.w3.org/2000/svg" viewBox="0 0 448 512" width="50" height="50" fill="currentColor">
  <path d="M380.9 97.1C339-2.6 229.6-31.6 136.4 14.7 49.1 57.6 12.9 161.9 62.7 240.1L48 304l66.3-14.1c16.4 9 35 14 54.7 14 2.7 0 5.4-.1 8.1-.3C299.3 302 384 221.9 384 128c0-10.2-.7-20.3-2.1-30.2-6.5-47.4-31.2-89.6-68.9-117.3zm-67.4 224.3c-13.3 8.1-27.2 14.6-41.6 19.4-29.3 10.2-60.9 12.2-91.4 5.8-24.6-5.1-48.1-16.1-67.5-31.9-19.6-15.9-34.2-36.7-42.3-60.6-8-23.7-8.9-49.6-2.5-74.3C78.4 129 116 85.9 167.4 71.6c27.5-7.7 57-7.3 84.2 1.2 15.3 4.9 30 12.5 43 21.9 15.5 11.3 28.5 26.2 38.5 43.1 10.2 17.3 16.6 36.3 19 55.7 1.9 15.8 1.1 31.9-2.5 47.5-4.1 18-12.5 35.1-24.1 50.3-5.6 7.3-11.9 14.1-18.8 20.1z"/>
</svg>